# 3ds Max Wavefront OBJ Exporter v0.97b - (c)2007 guruware
# File Created: 17.04.2021 15:20:09

mtllib CornellBox.mtl

#
# object ceiling
#

v  1.0000 1.0000 2.0000
v  1.0000 -1.0000 2.0000
v  -1.0000 -1.0000 2.0000
v  -1.0000 1.0000 2.0000
# 4 vertices

vn 0.0000 0.0000 -1.0000
# 1 vertex normals

o ceiling
g ceiling
usemtl ceiling
f 1//1 2//1 3//1 
f 3//1 4//1 1//1 
# 2 faces

#
# object backWall
#

v  1.0000 1.0000 2.0000
v  -1.0000 1.0000 2.0000
v  -1.0000 1.0000 0.0000
v  1.0000 1.0000 0.0000
# 4 vertices

vn 0.0000 -1.0000 0.0000
# 1 vertex normals

o backWall
g backWall
usemtl backWall
f 5//2 6//2 7//2 
f 7//2 8//2 5//2 
# 2 faces

#
# object rightWall
#

v  1.0000 -1.0000 2.0000
v  1.0000 1.0000 2.0000
v  1.0000 1.0000 0.0000
v  1.0000 -1.0000 0.0000
# 4 vertices

vn -1.0000 0.0000 0.0000
# 1 vertex normals

o rightWall
g rightWall
usemtl rightWall
f 9//3 10//3 11//3 
f 11//3 12//3 9//3 
# 2 faces

#
# object leftWall
#

v  -1.0000 -1.0000 0.0000
v  -1.0000 1.0000 0.0000
v  -1.0000 1.0000 2.0000
v  -1.0000 -1.0000 2.0000
# 4 vertices

vn 1.0000 0.0000 0.0050
vn 0.9998 -0.0099 0.0151
# 2 vertex normals

o leftWall
g leftWall
usemtl leftWall
f 13//4 14//5 15//4 
f 15//4 16//4 13//4 
# 2 faces

#
# object tallBox
#

v  -0.1400 0.6450 1.2000
v  -0.7100 0.4650 1.2000
v  -0.5300 -0.1150 1.2000
v  0.0400 0.0650 1.2000
v  -0.7100 0.4650 -0.0000
v  -0.5300 -0.1150 -0.0000
v  -0.1400 0.6450 -0.0000
v  0.0400 0.0650 -0.0000
# 8 vertices

vn 0.0000 0.0000 1.0000
vn -0.9551 -0.2964 0.0000
vn -0.3011 0.9536 0.0000
vn 0.9551 0.2964 0.0000
vn 0.3011 -0.9536 0.0000
# 5 vertex normals

o tallBox
g tallBox
usemtl tallBox
f 17//6 18//6 19//6 
f 19//6 20//6 17//6 
f 18//7 21//7 22//7 
f 22//7 19//7 18//7 
f 17//8 23//8 21//8 
f 21//8 18//8 17//8 
f 20//9 24//9 23//9 
f 23//9 17//9 20//9 
f 20//10 19//10 22//10 
f 22//10 24//10 20//10 
# 10 faces

#
# object light
#

v  0.2500 0.1950 1.9850
v  0.2500 -0.1850 1.9850
v  -0.2500 -0.1850 1.9850
v  -0.2500 0.1950 1.9850
# 4 vertices

vn 0.0000 0.0000 -1.0000
# 1 vertex normals

o light
g light
usemtl light
f 25//11 26//11 27//11 
f 27//11 28//11 25//11 
# 2 faces

#
# object floor
#

v  1.0000 1.0000 0.0000
v  -1.0000 1.0000 0.0000
v  -1.0000 -1.0000 0.0000
v  1.0000 -1.0000 0.0000
# 4 vertices

vn 0.0000 0.0000 1.0000
# 1 vertex normals

o floor
g floor
usemtl floor
f 29//12 30//12 31//12 
f 31//12 32//12 29//12 
# 2 faces

#
# object shortBox
#

v  0.1300 -0.0250 0.6000
v  -0.0500 -0.5950 0.6000
v  0.5300 -0.7750 0.6000
v  0.7000 -0.1950 0.6000
v  0.5300 -0.7750 0.0000
v  0.7000 -0.1950 0.0000
v  0.1300 -0.0250 0.0000
v  -0.0500 -0.5950 0.0000
# 8 vertices

vn 0.0000 0.0000 1.0000
vn 0.9596 -0.2813 0.0000
vn 0.2858 0.9583 0.0000
vn -0.9536 0.3011 0.0000
vn -0.2964 -0.9551 0.0000
# 5 vertex normals

o shortBox
g shortBox
usemtl shortBox
f 33//13 34//13 35//13 
f 35//13 36//13 33//13 
f 36//14 35//14 37//14 
f 37//14 38//14 36//14 
f 33//15 36//15 38//15 
f 38//15 39//15 33//15 
f 34//16 33//16 39//16 
f 39//16 40//16 34//16 
f 35//17 34//17 40//17 
f 40//17 37//17 35//17 
# 10 faces

