# 3ds Max Wavefront OBJ Exporter v0.97b - (c)2007 guruware
# File Created: 16.04.2021 01:43:59

mtllib CornellBox.mtl

#
# object ceiling
#

v  -1.0200 -1.0150 1.9950
v  -1.0200 1.0150 1.9950
v  1.0000 1.0150 1.9950
v  1.0000 -1.0150 1.9950
# 4 vertices

vn 0.0000 0.0000 -1.0000
# 1 vertex normals

o ceiling
g ceiling
usemtl ceiling
f 1//1 2//1 3//1 
f 1//1 3//1 4//1 
# 2 faces

#
# object backWall
#

v  -0.9900 1.0150 0.0050
v  1.0000 1.0150 0.0050
v  1.0000 1.0150 1.9950
v  -1.0200 1.0150 1.9950
# 4 vertices

vn 0.0000 -1.0000 0.0000
# 1 vertex normals

o backWall
g backWall
usemtl backWall
f 5//2 6//2 7//2 
f 5//2 7//2 8//2 
# 2 faces

#
# object rightWall
#

v  1.0000 1.0150 0.0050
v  1.0000 -1.0150 0.0050
v  1.0000 -1.0150 1.9950
v  1.0000 1.0150 1.9950
# 4 vertices

vn -1.0000 0.0000 0.0000
# 1 vertex normals

o rightWall
g rightWall
usemtl rightWall
f 9//3 10//3 11//3 
f 9//3 11//3 12//3 
# 2 faces

#
# object leftWall
#

v  -1.0200 1.0150 1.9950
v  -1.0200 -1.0150 1.9950
v  -1.0100 -1.0150 0.0050
v  -0.9900 1.0150 0.0050
# 4 vertices

vn 1.0000 0.0000 0.0050
vn 0.9998 -0.0099 0.0151
# 2 vertex normals

o leftWall
g leftWall
usemtl leftWall
f 13//4 14//4 15//4 
f 15//5 16//5 13//5 
# 2 faces

#
# object tallBox
#

v  -0.5300 -0.1150 1.2050
v  0.0400 0.0650 1.2050
v  -0.1400 0.6450 1.2050
v  -0.7100 0.4650 1.2050
v  -0.5300 -0.1150 0.0050
v  -0.7100 0.4650 0.0050
v  -0.1400 0.6450 0.0050
v  0.0400 0.0650 0.0050
# 8 vertices

vn 0.0000 0.0000 1.0000
vn -0.9551 -0.2964 0.0000
vn -0.3011 0.9536 0.0000
vn 0.9551 0.2964 0.0000
vn 0.3011 -0.9536 0.0000
# 5 vertex normals

o tallBox
g tallBox
usemtl tallBox
f 17//6 18//6 19//6 
f 17//6 19//6 20//6 
f 21//7 17//7 20//7 
f 21//7 20//7 22//7 
f 22//8 20//8 19//8 
f 22//8 19//8 23//8 
f 23//9 19//9 18//9 
f 23//9 18//9 24//9 
f 24//10 18//10 17//10 
f 24//10 17//10 21//10 
f 24//10 18//10 17//10 
f 24//10 17//10 21//10 
# 12 faces

#
# object light
#

v  -0.2400 -0.1850 1.9850
v  -0.2400 0.1950 1.9850
v  0.2300 0.1950 1.9850
v  0.2300 -0.1850 1.9850
# 4 vertices

vn 0.0000 0.0000 -1.0000
# 1 vertex normals

o light
g light
usemtl light
f 25//11 26//11 27//11 
f 25//11 27//11 28//11 
# 2 faces

#
# object floor
#

v  -1.0100 -1.0150 0.0050
v  1.0000 -1.0150 0.0050
v  1.0000 1.0150 0.0050
v  -0.9900 1.0150 0.0050
# 4 vertices

vn 0.0000 0.0000 1.0000
# 1 vertex normals

o floor
g floor
usemtl floor
f 29//12 30//12 31//12 
f 29//12 31//12 32//12 
# 2 faces

#
# object shortBox
#

v  0.5300 -0.7750 0.6050
v  0.7000 -0.1950 0.6050
v  0.1300 -0.0250 0.6050
v  -0.0500 -0.5950 0.6050
v  -0.0500 -0.5950 0.0050
v  0.1300 -0.0250 0.0050
v  0.5300 -0.7750 0.0050
v  0.7000 -0.1950 0.0050
# 8 vertices

vn 0.0000 0.0000 1.0000
vn -0.9536 0.3011 0.0000
vn -0.2964 -0.9551 0.0000
vn 0.9596 -0.2813 0.0000
vn 0.2858 0.9583 0.0000
# 5 vertex normals

o shortBox
g shortBox
usemtl shortBox
f 33//13 34//13 35//13 
f 33//13 35//13 36//13 
f 37//14 36//14 35//14 
f 37//14 35//14 38//14 
f 39//15 33//15 36//15 
f 39//15 36//15 37//15 
f 40//16 34//16 33//16 
f 40//16 33//16 39//16 
f 38//17 35//17 34//17 
f 38//17 34//17 40//17 
f 40//16 34//16 33//16 
f 40//16 33//16 39//16 
# 12 faces

